<svg width="512" height="512" version="1.1" viewBox="0 0 135.47 135.47" xmlns="http://www.w3.org/2000/svg" xmlns:xlink="http://www.w3.org/1999/xlink">
 <defs>
  <linearGradient id="linearGradient1174" x1="51.694" x2="187.16" y1="100.46" y2="100.46" gradientTransform="matrix(.97514 0 0 .97514 .70282 -.016164)" gradientUnits="userSpaceOnUse">
   <stop stop-color="#000080" offset="0"/>
   <stop stop-color="#4486d4" offset="1"/>
  </linearGradient>
 </defs>
 <g transform="translate(-49.428 -30.214)">
  <path d="m114.96 165.42c-35.177 0-63.817-29.619-63.841-66.568l-0.0029-36.005 32.509-32.05 0.17832 72.326 0.17831 3.6969 0.95525 3.0689c10.04 32.254 56.56 31.408 64.692-1.1769l0.81558-3.2681 0.19608-5.5826c0.70552-20.087 0.0638-29.917-0.0978-30.017-12.952 11.455-0.1486 0.3298-12.973 11.433-5.6221-5.8072-11.757-12.063-16.612-16.982 33.621-33.168 1.2956-1.1677 34.235-33.813 9.5019 0.02897 0.93792 0.07837 28.001 0.0711l0.0214 56.812c0.014 37.449-0.12192 19.765-0.36218 21.699-4.0292 36.34-34.502 56.48-67.892 56.355z" fill="url(#linearGradient1174)" stroke-width=".34401"/>
 </g>
</svg>
